<svg width="25" height="24" viewBox="0 0 25 24" fill="none" xmlns="http://www.w3.org/2000/svg">
<path fill-rule="evenodd" clip-rule="evenodd" d="M18.7545 2.43261C18.3342 2.08181 17.709 2.13814 17.3582 2.55843C17.0072 2.97894 17.0637 3.60444 17.4845 3.95518L20.5286 6.49287C20.9487 6.843 21.573 6.7864 21.9232 6.36644C22.2733 5.94655 22.2169 5.32236 21.7972 4.97205L18.7545 2.43261ZM8.05475 2.55811C7.70412 2.138 7.07931 2.08167 6.65919 2.43229L3.61707 4.97114C3.19733 5.32143 3.14082 5.94558 3.49081 6.36557C3.84111 6.78593 4.46592 6.84257 4.8861 6.49206L7.92877 3.95386C8.34905 3.60326 8.40546 2.9783 8.05475 2.55811ZM3.79135 12.8821C3.79135 7.95891 7.78343 3.96684 12.7067 3.96684C17.6299 3.96684 21.622 7.95891 21.622 12.8821C21.622 17.8054 17.6299 21.7974 12.7067 21.7974C7.78343 21.7974 3.79135 17.8054 3.79135 12.8821ZM11.1694 14.3943L9.60118 12.813C9.31362 12.523 8.84741 12.523 8.55985 12.813C8.2723 13.103 8.2723 13.5731 8.55985 13.863L10.8789 16.2015C11.0359 16.3598 11.2904 16.3598 11.4474 16.2015L16.5373 11.069C16.8246 10.7794 16.8246 10.3097 16.5373 10.0201C16.2496 9.72999 15.7831 9.73046 15.496 10.0211L11.1765 14.3943C11.1756 14.3953 11.1743 14.3958 11.173 14.3958C11.1716 14.3958 11.1704 14.3953 11.1694 14.3943Z" fill="white"/>
</svg>
