<svg width="25" height="24" viewBox="0 0 25 24" fill="none" xmlns="http://www.w3.org/2000/svg">
<path d="M17.5603 8.43375V15.5663L15.4327 13.4208C15.2449 13.2315 14.9893 13.125 14.7227 13.125H11.982V10.875H14.7227C14.9893 10.875 15.2449 10.7685 15.4327 10.5792L17.5603 8.43375ZM19.7917 5.42849C19.7917 4.53558 18.7104 4.09033 18.0817 4.72433L14.2133 8.625H5.86023C5.30794 8.625 4.86023 9.07272 4.86023 9.625V14.375C4.86023 14.9273 5.30794 15.375 5.86023 15.375H8.16475V20C8.16475 20.5523 8.61246 21 9.16475 21H10.982C11.5342 21 11.982 20.5523 11.982 20V15.375H14.2133L18.0817 19.2757C18.7104 19.9097 19.7917 19.4644 19.7917 18.5715V5.42849Z" fill="white"/>
</svg>
