<svg width="25" height="24" viewBox="0 0 25 24" fill="none" xmlns="http://www.w3.org/2000/svg">
<path d="M10.8718 14.5982C10.8706 14.5993 10.8687 14.5993 10.8676 14.5982L9.30219 13.0197C9.01295 12.7281 8.54144 12.7281 8.2522 13.0197V13.0197C7.96635 13.308 7.96635 13.7728 8.2522 14.061L10.5713 16.3994C10.7302 16.5598 10.9894 16.5598 11.1484 16.3994L16.2383 11.267C16.5239 10.9791 16.5239 10.5147 16.2383 10.2268V10.2268C15.949 9.93502 15.4771 9.9355 15.1883 10.2279L10.8718 14.5982ZM16.9118 2.76722C17.2617 2.3445 17.8891 2.28797 18.3089 2.64132L21.3242 5.17886C21.7386 5.52765 21.7944 6.14532 21.4492 6.56276V6.56276C21.0999 6.98515 20.4734 7.04195 20.0538 6.68927L17.0371 4.15347C16.6216 3.80425 16.5657 3.18528 16.9118 2.76722V2.76722ZM6.29928 2.64099C6.71895 2.28783 7.34601 2.34436 7.69574 2.76689V2.76689C8.04152 3.18464 7.9857 3.80307 7.57071 4.15216L4.55551 6.68846C4.13578 7.04152 3.50872 6.98468 3.15932 6.5619V6.5619C2.81425 6.14435 2.87017 5.52672 3.28462 5.17794L6.29928 2.64099ZM12.3039 4.16939C7.42151 4.16939 3.46252 8.16147 3.46252 13.0847C3.46252 18.0079 7.42151 22 12.3039 22C17.1864 22 21.1454 18.0079 21.1454 13.0847C21.1454 8.16147 17.1864 4.16939 12.3039 4.16939ZM12.3039 20.0188C8.51195 20.0188 5.42728 16.9084 5.42728 13.0847C5.42728 9.26102 8.51195 6.15057 12.3039 6.15057C16.0959 6.15057 19.1806 9.26102 19.1806 13.0847C19.1806 16.9084 16.0959 20.0188 12.3039 20.0188Z" fill="white"/>
</svg>
