<svg width="25" height="24" viewBox="0 0 25 24" fill="none" xmlns="http://www.w3.org/2000/svg">
<path fill-rule="evenodd" clip-rule="evenodd" d="M2.97241 12C2.97241 6.47 7.40537 2 12.8895 2C18.3737 2 22.8067 6.47 22.8067 12C22.8067 17.53 18.3737 22 12.8895 22C7.40537 22 2.97241 17.53 2.97241 12ZM4.95584 12C4.95584 16.41 8.51609 20 12.8895 20C12.9061 20 12.9226 20 12.9391 19.9998C8.55192 19.9729 4.98899 16.3933 4.98899 12C4.98899 7.60666 8.55192 4.02713 12.9391 4.00015C12.9226 4.00005 12.9061 4 12.8895 4C8.51609 4 4.95584 7.59 4.95584 12ZM12.989 10.59L15.874 7.705C16.2633 7.31564 16.8946 7.31564 17.284 7.705C17.6733 8.09436 17.6733 8.72564 17.284 9.115L14.399 12L17.284 14.885C17.6733 15.2744 17.6733 15.9056 17.284 16.295C16.8946 16.6844 16.2633 16.6844 15.874 16.295L12.989 13.41L10.104 16.295C9.71463 16.6844 9.08335 16.6844 8.69399 16.295C8.30463 15.9056 8.30463 15.2744 8.69399 14.885L11.579 12L8.69399 9.115C8.30463 8.72564 8.30463 8.09436 8.69399 7.705C9.08335 7.31564 9.71463 7.31564 10.104 7.705L12.989 10.59Z" fill="white"/>
</svg>
