<svg width="25" height="24" viewBox="0 0 25 24" fill="none" xmlns="http://www.w3.org/2000/svg">
<path d="M19.2657 7.11031C19.3721 7.3454 19.706 7.3454 19.8124 7.11031L20.4269 5.75238L21.7802 5.12968C22.013 5.02256 22.013 4.69173 21.7802 4.58461L20.4269 3.9619L19.8124 2.60398C19.706 2.36889 19.3721 2.36889 19.2657 2.60398L18.6512 3.9619L17.2979 4.58461C17.0651 4.69173 17.0651 5.02256 17.2979 5.12968L18.6512 5.75238L19.2657 7.11031Z" fill="white"/>
<path d="M8.40411 7.11031C8.51049 7.3454 8.84436 7.3454 8.95074 7.11031L9.56524 5.75238L10.9186 5.12968C11.1514 5.02256 11.1514 4.69173 10.9186 4.58461L9.56524 3.9619L8.95074 2.60398C8.84436 2.36889 8.51049 2.36889 8.40411 2.60398L7.7896 3.9619L6.43626 4.58461C6.20346 4.69173 6.20346 5.02256 6.43626 5.12968L7.7896 5.75238L8.40411 7.11031Z" fill="white"/>
<path d="M19.8124 13.5564C19.706 13.3213 19.3721 13.3213 19.2657 13.5564L18.6512 14.9143L17.2979 15.537C17.0651 15.6441 17.0651 15.9749 17.2979 16.0821L18.6512 16.7048L19.2657 18.0627C19.3721 18.2978 19.706 18.2978 19.8124 18.0627L20.4269 16.7048L21.7802 16.0821C22.013 15.9749 22.013 15.6441 21.7802 15.537L20.4269 14.9143L19.8124 13.5564Z" fill="white"/>
<path d="M17.3762 9.73333L14.7033 7.03809C14.5144 6.85714 14.2782 6.7619 14.0327 6.7619C13.7871 6.7619 13.551 6.85714 13.3621 7.03809L2.81215 17.6762C2.4438 18.0476 2.4438 18.6476 2.81215 19.019L5.48505 21.7143C5.67395 21.9048 5.91007 22 6.15564 22C6.40121 22 6.63733 21.9048 6.82623 21.7238L17.3762 11.0857C17.7445 10.7143 17.7445 10.1048 17.3762 9.73333ZM14.0327 9.06667L15.3644 10.4095L14.2593 11.5238L12.9276 10.181L14.0327 9.06667ZM6.15564 19.7048L4.82391 18.3619L11.5959 11.5238L12.9276 12.8667L6.15564 19.7048Z" fill="white"/>
</svg>
