<svg width="25" height="24" viewBox="0 0 25 24" fill="none" xmlns="http://www.w3.org/2000/svg">
<path d="M5.07905 6.9C5.07905 6.40294 4.67611 6 4.17905 6V6C3.682 6 3.27905 6.40294 3.27905 6.9V20C3.27905 21.1 4.08905 22 5.07905 22H16.6791C17.2313 22 17.6791 21.5523 17.6791 21V21C17.6791 20.4477 17.2313 20 16.6791 20H5.07905V6.9ZM19.4791 2H8.67905C7.68905 2 6.87905 2.9 6.87905 4V16C6.87905 17.1 7.68905 18 8.67905 18H19.4791C20.4691 18 21.2791 17.1 21.2791 16V4C21.2791 2.9 20.4691 2 19.4791 2ZM19.4791 16H8.67905V4H13.1791V11.9325C13.1791 12.3564 13.6735 12.588 13.9991 12.3166L15.8791 10.75L17.759 12.3166C18.0846 12.588 18.5791 12.3564 18.5791 11.9325V4H19.4791V16Z" fill="white"/>
</svg>
