<svg width="25" height="24" viewBox="0 0 25 24" fill="none" xmlns="http://www.w3.org/2000/svg">
<path d="M11.743 17C11.743 17.5477 12.187 18 12.7348 18V18C13.2825 18 13.7265 17.5477 13.7265 17V17C13.7265 16.4523 13.2825 16 12.7348 16V16C12.187 16 11.743 16.4523 11.743 17V17ZM12.7348 2C7.2605 2 2.81763 6.48 2.81763 12C2.81763 17.52 7.2605 22 12.7348 22C18.209 22 22.6519 17.52 22.6519 12C22.6519 6.48 18.209 2 12.7348 2ZM12.7348 20C8.3613 20 4.80105 16.41 4.80105 12C4.80105 7.59 8.3613 4 12.7348 4C17.1082 4 20.6685 7.59 20.6685 12C20.6685 16.41 17.1082 20 12.7348 20ZM12.7348 6C10.8791 6 9.32209 7.28315 8.88822 9.01795C8.75533 9.54929 9.21191 10 9.75962 10V10C10.3073 10 10.7313 9.53004 10.9919 9.04828C11.3288 8.4252 11.9849 8 12.7348 8C13.8256 8 14.7182 8.9 14.7182 10C14.7182 11.7716 12.3839 11.7778 11.8506 14.0147C11.7236 14.5475 12.187 15 12.7348 15V15C13.2825 15 13.7034 14.534 13.9385 14.0393C14.6187 12.6084 16.7016 12.0918 16.7016 10C16.7016 7.79 14.9264 6 12.7348 6Z" fill="white"/>
</svg>
