<svg width="25" height="24" viewBox="0 0 25 24" fill="none" xmlns="http://www.w3.org/2000/svg">
<path d="M12.453 2C6.97876 2 2.53589 6.48 2.53589 12C2.53589 17.52 6.97876 22 12.453 22C17.9273 22 22.3701 17.52 22.3701 12C22.3701 6.48 17.9273 2 12.453 2ZM13.4447 18C13.4447 18.5477 13.0007 19 12.453 19V19C11.9053 19 11.4613 18.5477 11.4613 18V18C11.4613 17.4523 11.9053 17 12.453 17V17C13.0007 17 13.4447 17.4523 13.4447 18V18ZM15.4976 11.25L14.605 12.17C14.0726 12.7143 13.6891 13.1864 13.5284 14.0131C13.4239 14.5508 13.0007 15 12.453 15H11.9613C11.6852 15 11.4613 14.7761 11.4613 14.5V14.5C11.4613 13.4 11.9076 12.4 12.6216 11.67L13.8513 10.41C14.2183 10.05 14.4364 9.55 14.4364 9C14.4364 7.9 13.5439 7 12.453 7C11.7032 7 11.0471 7.4252 10.7101 8.04828C10.4496 8.53004 10.0256 9 9.47788 9V9C8.93017 9 8.47359 8.54929 8.60648 8.01795C9.04035 6.28315 10.5974 5 12.453 5C14.6447 5 16.4199 6.79 16.4199 9C16.4199 9.88 16.0629 10.68 15.4976 11.25Z" fill="white"/>
</svg>
