<svg width="25" height="24" viewBox="0 0 25 24" fill="none" xmlns="http://www.w3.org/2000/svg">
<path d="M19.1836 8.34664C18.7514 7.91081 18.0467 7.91081 17.6145 8.34664V8.34664C17.1883 8.77642 17.1872 9.46911 17.6121 9.90022L18.5864 10.8889H10.6949C10.0813 10.8889 9.58383 11.3864 9.58383 12V12C9.58383 12.6136 10.0813 13.1111 10.6949 13.1111H18.5864L17.6158 14.0898C17.1888 14.5204 17.1876 15.2142 17.613 15.6462V15.6462C18.0456 16.0855 18.7538 16.0868 19.1879 15.649L22.4129 12.3971C22.6309 12.1772 22.6309 11.8228 22.4129 11.6029L19.1836 8.34664ZM5.17622 4.22222H11.7784C12.3921 4.22222 12.8895 3.72476 12.8895 3.11111V3.11111C12.8895 2.49746 12.3921 2 11.7784 2H5.17622C3.96412 2 2.97241 3 2.97241 4.22222V19.7778C2.97241 21 3.96412 22 5.17622 22H11.7784C12.3921 22 12.8895 21.5025 12.8895 20.8889V20.8889C12.8895 20.2752 12.3921 19.7778 11.7784 19.7778H5.17622V4.22222Z" fill="white"/>
</svg>
