<svg width="25" height="24" viewBox="0 0 25 24" fill="none" xmlns="http://www.w3.org/2000/svg">
<path d="M6.15489 4.22222C6.221 5.21111 6.38629 6.17778 6.65074 7.1L5.32846 8.43333C4.87668 7.1 4.59019 5.68889 4.49101 4.22222H6.15489ZM17.0197 17.5778C17.9563 17.8444 18.9149 18.0111 19.8846 18.0778V19.7333C18.4301 19.6333 17.0307 19.3444 15.6974 18.9L17.0197 17.5778ZM7.21271 2H3.35605C2.75001 2 2.25415 2.5 2.25415 3.11111C2.25415 13.5444 10.6396 22 20.9865 22C21.5925 22 22.0884 21.5 22.0884 20.8889V17.0111C22.0884 16.4 21.5925 15.9 20.9865 15.9C19.6201 15.9 18.2868 15.6778 17.0527 15.2667C16.9425 15.2222 16.8213 15.2111 16.7111 15.2111C16.4246 15.2111 16.1491 15.3222 15.9288 15.5333L13.5046 17.9778C10.3862 16.3667 7.82978 13.8 6.24304 10.6556L8.66723 8.21111C8.97576 7.9 9.06391 7.46667 8.9427 7.07778C8.535 5.83333 8.31462 4.5 8.31462 3.11111C8.31462 2.5 7.81876 2 7.21271 2Z" fill="white"/>
</svg>
