<svg width="25" height="24" viewBox="0 0 25 24" fill="none" xmlns="http://www.w3.org/2000/svg">
<g clip-path="url(#clip0_1062_617)">
<path d="M13.3854 5.0935L19.0878 10.2685V19.25H16.8068V13.35C16.8068 12.7977 16.3591 12.35 15.8068 12.35H10.964C10.4117 12.35 9.964 12.7977 9.964 13.35V19.25H7.68306V10.2685L13.3854 5.0935ZM14.0574 2.60989C13.6762 2.26391 13.0946 2.26391 12.7134 2.60989L3.89859 10.6095C3.22142 11.224 3.65618 12.35 4.57063 12.35H5.40212V20.55C5.40212 21.1023 5.84984 21.55 6.40212 21.55H11.2449C11.7972 21.55 12.2449 21.1023 12.2449 20.55V14.65H14.5259V20.55C14.5259 21.1023 14.9736 21.55 15.5259 21.55H20.3687C20.921 21.55 21.3687 21.1023 21.3687 20.55V12.35H22.2002C23.1146 12.35 23.5494 11.224 22.8722 10.6095L14.0574 2.60989Z" fill="white"/>
</g>
<defs>
<clipPath id="clip0_1062_617">
<rect width="23.8011" height="24" fill="white" transform="translate(0.989014)"/>
</clipPath>
</defs>
</svg>
