<svg width="25" height="24" viewBox="0 0 25 24" fill="none" xmlns="http://www.w3.org/2000/svg">
<path d="M18.8422 2C18.5668 2 18.2803 2.1111 18.071 2.32218L16.7531 3.65107C16.3665 4.04091 16.3665 4.66955 16.7531 5.05939L19.4763 7.80534C19.8675 8.19979 20.5052 8.1998 20.8964 7.80534L22.2025 6.48827C22.6322 6.05499 22.6322 5.35509 22.2025 4.92182L19.6245 2.32218C19.4041 2.09999 19.1287 2 18.8422 2ZM15.586 6.25993C15.1948 5.86547 14.5571 5.86547 14.1659 6.25993L2.98051 17.5388C2.79477 17.726 2.69055 17.9791 2.69055 18.2429V20.9972C2.69055 21.5495 3.13827 21.9972 3.69055 21.9972H6.40546C6.67212 21.9972 6.92773 21.8907 7.1155 21.7014L18.3091 10.4142C18.6958 10.0244 18.6958 9.39572 18.3091 9.00588L15.586 6.25993Z" fill="white"/>
</svg>
