<svg width="25" height="24" viewBox="0 0 25 24" fill="none" xmlns="http://www.w3.org/2000/svg">
<path d="M15.003 8.68796L16.0166 9.71004L6.03474 19.7753H5.02113V18.7532L15.003 8.68796ZM18.9693 2C18.6938 2 18.4074 2.1111 18.1981 2.32218L16.8802 3.65107C16.4936 4.04091 16.4936 4.66955 16.8802 5.05939L19.6034 7.80534C19.9946 8.19979 20.6323 8.1998 21.0235 7.80534L22.3296 6.48827C22.7593 6.05499 22.7593 5.35509 22.3296 4.92182L19.7515 2.32218C19.5312 2.09999 19.2557 2 18.9693 2ZM15.713 6.25993C15.3218 5.86547 14.6841 5.86547 14.2929 6.25993L3.10758 17.5388C2.92184 17.726 2.81763 17.9791 2.81763 18.2429V20.9972C2.81763 21.5495 3.26534 21.9972 3.81763 21.9972H6.53254C6.7992 21.9972 7.05481 21.8907 7.24258 21.7014L18.4362 10.4142C18.8228 10.0244 18.8228 9.39572 18.4362 9.00588L15.713 6.25993Z" fill="white"/>
</svg>
