<svg width="25" height="24" viewBox="0 0 25 24" fill="none" xmlns="http://www.w3.org/2000/svg">
<path d="M9.92949 20.1818H17.2931C17.9722 20.1818 18.5531 19.7727 18.7986 19.1836L21.2695 13.4154C21.3431 13.2272 21.384 13.0308 21.384 12.8181V11.1818C21.384 10.2818 20.6477 9.54539 19.7477 9.54539H14.5849L15.3622 5.8063L15.3868 5.54448C15.3868 5.20902 15.2477 4.89812 15.0268 4.67721L14.1595 3.81812L8.76767 9.20993C8.47312 9.50448 8.29312 9.91357 8.29312 10.3636V18.5454C8.29312 19.4454 9.02949 20.1818 9.92949 20.1818ZM9.92949 10.3636L13.4804 6.81266L12.384 11.1818H19.7477V12.8181L17.2931 18.5454H9.92949V10.3636ZM3.38403 10.3636H6.65676V20.1818H3.38403V10.3636Z" fill="white"/>
</svg>
