<svg width="25" height="24" viewBox="0 0 25 24" fill="none" xmlns="http://www.w3.org/2000/svg">
<path d="M14.8759 3.81818C14.8759 3.31611 14.4689 2.90909 13.9669 2.90909H11.7205L11.1123 2.29584C10.9246 2.1065 10.6689 2 10.4023 2H6.72781C6.46115 2 6.20554 2.1065 6.01777 2.29584L5.4096 2.90909H3.16324C2.66116 2.90909 2.25415 3.31611 2.25415 3.81818V3.81818C2.25415 4.32026 2.66116 4.72727 3.16324 4.72727H13.9669C14.4689 4.72727 14.8759 4.32026 14.8759 3.81818V3.81818Z" fill="white"/>
<path d="M15.7775 9.27273C15.1464 9.27273 14.5424 9.36364 13.9744 9.53636V6.63636C13.9744 6.08408 13.5267 5.63636 12.9744 5.63636H4.15571C3.60342 5.63636 3.15571 6.08408 3.15571 6.63636V16.5455C3.15571 17.5455 3.96711 18.3636 4.95882 18.3636H10.0797C11.0894 20.5091 13.2622 22 15.7775 22C19.2665 22 22.0884 19.1545 22.0884 15.6364C22.0884 12.1182 19.2665 9.27273 15.7775 9.27273ZM9.46661 15.6364C9.46661 15.9455 9.49365 16.2455 9.53873 16.5455H4.95882V7.45455H12.1713V10.4182C10.5395 11.5727 9.46661 13.4727 9.46661 15.6364ZM15.7775 20.1818C13.2892 20.1818 11.2697 18.1455 11.2697 15.6364C11.2697 13.1273 13.2892 11.0909 15.7775 11.0909C18.2658 11.0909 20.2853 13.1273 20.2853 15.6364C20.2853 18.1455 18.2658 20.1818 15.7775 20.1818Z" fill="white"/>
<path d="M16.2283 12.6762C16.2283 12.3027 15.9256 12 15.5521 12V12C15.1787 12 14.8759 12.3027 14.8759 12.6762V16.5432C14.8759 16.5446 14.8767 16.5459 14.8779 16.5466L17.5869 18.1401C17.8866 18.3163 18.2719 18.2272 18.4637 17.9371V17.9371C18.6699 17.6252 18.5729 17.2041 18.251 17.0138L16.2283 15.8182V12.6762Z" fill="white"/>
</svg>
