<svg width="25" height="24" viewBox="0 0 25 24" fill="none" xmlns="http://www.w3.org/2000/svg">
<path d="M12.453 4.92904L10.3493 7.05036C9.962 7.44089 9.962 8.07405 10.3493 8.46458V8.46458C10.7366 8.8551 11.3645 8.8551 11.7518 8.46458L13.8555 6.34326C15.0126 5.17653 16.9059 5.17653 18.063 6.34326C19.2201 7.50998 19.2201 9.41917 18.063 10.5859L15.9593 12.7072C15.572 13.0977 15.572 13.7309 15.9593 14.1214V14.1214C16.3465 14.512 16.9745 14.512 17.3618 14.1214L19.4655 12.0001C21.4009 10.0485 21.4009 6.88066 19.4655 4.92904C17.5301 2.97743 14.3885 2.97743 12.453 4.92904ZM14.5568 15.5356C14.1695 15.1451 13.5416 15.1451 13.1543 15.5356L11.0505 17.657C9.89348 18.8237 8.00011 18.8237 6.84305 17.657C5.686 16.4902 5.686 14.5811 6.84305 13.4143L8.94679 11.293C9.33408 10.9025 9.33408 10.2693 8.94679 9.87879V9.87879C8.55951 9.48827 7.93159 9.48827 7.5443 9.87879L5.44056 12.0001C3.50512 13.9517 3.50512 17.1196 5.44056 19.0712C7.376 21.0228 10.5176 21.0228 12.453 19.0712L14.5568 16.9499C14.9441 16.5593 14.9441 15.9262 14.5568 15.5356V15.5356ZM9.64804 14.8285C9.26075 14.438 9.26075 13.8048 9.64804 13.4143L13.8555 9.17168C14.2428 8.78116 14.8707 8.78116 15.258 9.17168V9.17168C15.6453 9.56221 15.6453 10.1954 15.258 10.5859L11.0505 14.8285C10.6632 15.2191 10.0353 15.2191 9.64804 14.8285V14.8285Z" fill="white"/>
</svg>
