<svg width="25" height="24" viewBox="0 0 25 24" fill="none" xmlns="http://www.w3.org/2000/svg">
<path d="M19.1381 7.10913C19.522 6.72207 19.522 6.09792 19.1381 5.71087V5.71087C18.7498 5.31923 18.1166 5.31923 17.7282 5.71087L12.8895 10.59L8.0508 5.71087C7.6624 5.31923 7.02924 5.31923 6.64085 5.71087V5.71087C6.257 6.09792 6.257 6.72207 6.64085 7.10913L11.4912 12L6.64085 16.8909C6.257 17.2779 6.257 17.9021 6.64085 18.2891V18.2891C7.02924 18.6808 7.66241 18.6808 8.0508 18.2891L12.8895 13.41L17.7282 18.2891C18.1166 18.6808 18.7498 18.6808 19.1381 18.2891V18.2891C19.522 17.9021 19.522 17.2779 19.1381 16.8909L14.2878 12L19.1381 7.10913Z" fill="white"/>
</svg>
