<svg width="25" height="24" viewBox="0 0 25 24" fill="none" xmlns="http://www.w3.org/2000/svg">
<path d="M19.553 12.98C19.5927 12.66 19.6224 12.34 19.6224 12C19.6224 11.66 19.5927 11.34 19.553 11.02L21.6455 9.37C21.834 9.22 21.8835 8.95 21.7645 8.73L19.7811 5.27C19.6919 5.11 19.5233 5.02 19.3448 5.02C19.2853 5.02 19.2258 5.03 19.1762 5.05L16.7068 6.05C16.1911 5.65 15.6358 5.32 15.0308 5.07L14.654 2.42C14.6242 2.18 14.4159 2 14.168 2H10.2012C9.95324 2 9.74498 2.18 9.71523 2.42L9.33838 5.07C8.73343 5.32 8.17807 5.66 7.66238 6.05L5.19302 5.05C5.13351 5.03 5.07401 5.02 5.01451 5.02C4.84592 5.02 4.67733 5.11 4.58807 5.27L2.60465 8.73C2.47572 8.95 2.53523 9.22 2.72365 9.37L4.81617 11.02C4.7765 11.34 4.74675 11.67 4.74675 12C4.74675 12.33 4.7765 12.66 4.81617 12.98L2.72365 14.63C2.53523 14.78 2.48564 15.05 2.60465 15.27L4.58807 18.73C4.67733 18.89 4.84592 18.98 5.02443 18.98C5.08393 18.98 5.14343 18.97 5.19302 18.95L7.66238 17.95C8.17807 18.35 8.73343 18.68 9.33838 18.93L9.71523 21.58C9.74498 21.82 9.95324 22 10.2012 22H14.168C14.4159 22 14.6242 21.82 14.654 21.58L15.0308 18.93C15.6358 18.68 16.1911 18.34 16.7068 17.95L19.1762 18.95C19.2357 18.97 19.2952 18.98 19.3547 18.98C19.5233 18.98 19.6919 18.89 19.7811 18.73L21.7645 15.27C21.8835 15.05 21.834 14.78 21.6455 14.63L19.553 12.98ZM17.5894 11.27C17.6291 11.58 17.639 11.79 17.639 12C17.639 12.21 17.6192 12.43 17.5894 12.73L17.4506 13.86L18.3332 14.56L19.4043 15.4L18.7101 16.61L17.4506 16.1L16.4192 15.68L15.5267 16.36C15.1002 16.68 14.6936 16.92 14.287 17.09L13.2358 17.52L13.0771 18.65L12.8788 20H11.4904L11.1433 17.52L10.0921 17.09C9.66564 16.91 9.26896 16.68 8.87227 16.38L7.96981 15.68L6.9186 16.11L5.65912 16.62L4.96492 15.41L6.03597 14.57L6.9186 13.87L6.77976 12.74C6.75001 12.43 6.73017 12.2 6.73017 12C6.73017 11.8 6.75001 11.57 6.77976 11.27L6.9186 10.14L6.03597 9.44L4.96492 8.6L5.65912 7.39L6.9186 7.9L7.94998 8.32L8.84252 7.64C9.26896 7.32 9.67556 7.08 10.0822 6.91L11.1334 6.48L11.2921 5.35L11.4904 4H12.8689L13.216 6.48L14.2672 6.91C14.6936 7.09 15.0903 7.32 15.487 7.62L16.3895 8.32L17.4407 7.89L18.7001 7.38L19.3943 8.59L18.3332 9.44L17.4506 10.14L17.5894 11.27ZM12.1846 8C9.99291 8 8.21774 9.79 8.21774 12C8.21774 14.21 9.99291 16 12.1846 16C14.3763 16 16.1514 14.21 16.1514 12C16.1514 9.79 14.3763 8 12.1846 8ZM12.1846 14C11.0937 14 10.2012 13.1 10.2012 12C10.2012 10.9 11.0937 10 12.1846 10C13.2755 10 14.168 10.9 14.168 12C14.168 13.1 13.2755 14 12.1846 14Z" fill="white"/>
</svg>
