<svg width="25" height="24" viewBox="0 0 25 24" fill="none" xmlns="http://www.w3.org/2000/svg">
<path d="M12.7348 2C7.2605 2 2.81763 6.48 2.81763 12C2.81763 17.52 7.2605 22 12.7348 22C18.209 22 22.6519 17.52 22.6519 12C22.6519 6.48 18.209 2 12.7348 2ZM8.12329 18.5C9.42243 17.56 11.0092 17 12.7348 17C14.4603 17 16.0471 17.56 17.3462 18.5C16.0471 19.44 14.4603 20 12.7348 20C11.0092 20 9.42243 19.44 8.12329 18.5ZM18.8239 17.12C17.1479 15.8 15.0355 15 12.7348 15C10.434 15 8.32163 15.8 6.64564 17.12C5.49525 15.73 4.80105 13.95 4.80105 12C4.80105 7.58 8.35138 4 12.7348 4C17.1181 4 20.6685 7.58 20.6685 12C20.6685 13.95 19.9743 15.73 18.8239 17.12Z" fill="white"/>
<path d="M12.7348 6C10.8207 6 9.26376 7.57 9.26376 9.5C9.26376 11.43 10.8207 13 12.7348 13C14.6488 13 16.2057 11.43 16.2057 9.5C16.2057 7.57 14.6488 6 12.7348 6ZM12.7348 11C11.9116 11 11.2472 10.33 11.2472 9.5C11.2472 8.67 11.9116 8 12.7348 8C13.5579 8 14.2223 8.67 14.2223 9.5C14.2223 10.33 13.5579 11 12.7348 11Z" fill="white"/>
</svg>
