<svg width="25" height="24" viewBox="0 0 25 24" fill="none" xmlns="http://www.w3.org/2000/svg">
<path d="M15.7173 2.29584C15.5295 2.1065 15.2739 2 15.0072 2H10.331C10.0644 2 9.80875 2.1065 9.62098 2.29584L8.81247 3.11111H6.06692C5.45327 3.11111 4.95581 3.60857 4.95581 4.22222V4.22222C4.95581 4.83587 5.45327 5.33333 6.06692 5.33333H19.2713C19.885 5.33333 20.3825 4.83587 20.3825 4.22222V4.22222C20.3825 3.60857 19.885 3.11111 19.2713 3.11111H16.5258L15.7173 2.29584ZM19.2805 7.44444C19.2805 6.89216 18.8328 6.44444 18.2805 6.44444H7.05771C6.50543 6.44444 6.05771 6.89216 6.05771 7.44444V19.7778C6.05771 21 7.04943 22 8.26152 22H17.0767C18.2888 22 19.2805 21 19.2805 19.7778V7.44444Z" fill="white"/>
</svg>
