<svg width="25" height="24" viewBox="0 0 25 24" fill="none" xmlns="http://www.w3.org/2000/svg">
<path fill-rule="evenodd" clip-rule="evenodd" d="M6.93611 4.88589C10.8321 1.8416 16.4392 2.55859 19.4583 6.48711L21.2391 5.09558C21.4497 4.931 21.7521 5.10487 21.7183 5.37111L21.1361 9.95484C21.1151 10.1198 20.9655 10.2367 20.8018 10.216L16.2546 9.64038C15.9905 9.60695 15.899 9.26828 16.1097 9.10369L17.8905 7.71217C15.5396 4.65315 11.1847 4.09628 8.15102 6.46678C5.11735 8.83728 4.5651 13.2286 6.91595 16.2876C9.26681 19.3466 13.6217 19.9035 16.6554 17.533C17.8844 16.5727 18.7036 15.2731 19.0837 13.8673C19.2287 13.3309 19.7215 12.9357 20.2684 13.0056C20.8121 13.0751 21.2019 13.5773 21.0739 14.1148C20.6172 16.0326 19.5399 17.8093 17.8703 19.1139C13.9744 22.1582 8.36722 21.4412 5.34816 17.5127C2.32911 13.5842 3.04015 7.93018 6.93611 4.88589ZM11.0899 9.01439C11.0899 8.60361 11.4229 8.27061 11.8337 8.27061C12.2444 8.27061 12.5774 8.60361 12.5774 9.01439V12.4206L15.4297 14.1283C15.7825 14.3395 15.8976 14.7966 15.6869 15.1498C15.4759 15.5036 15.0178 15.6191 14.6642 15.4077L11.5767 13.5617C11.2747 13.3811 11.0899 13.0552 11.0899 12.7034V9.01439Z" fill="white"/>
</svg>
