<svg width="25" height="24" viewBox="0 0 25 24" fill="none" xmlns="http://www.w3.org/2000/svg">
<path d="M12.7348 2C7.2605 2 2.81763 6.48 2.81763 12C2.81763 17.52 7.2605 22 12.7348 22C18.209 22 22.6519 17.52 22.6519 12C22.6519 6.48 18.209 2 12.7348 2ZM13.7265 16C13.7265 16.5477 13.2825 17 12.7348 17V17C12.187 17 11.743 16.5477 11.743 16V16C11.743 15.4523 12.187 15 12.7348 15V15C13.2825 15 13.7265 15.4523 13.7265 16V16ZM13.7265 12.0083C13.7265 12.556 13.2825 13 12.7348 13V13C12.187 13 11.743 12.556 11.743 12.0083V7.99171C11.743 7.444 12.187 7 12.7348 7V7C13.2825 7 13.7265 7.444 13.7265 7.99171V12.0083Z" fill="white"/>
</svg>
