<svg width="25" height="24" viewBox="0 0 25 24" fill="none" xmlns="http://www.w3.org/2000/svg">
<path d="M13.8813 3C8.95245 3 4.95585 7.03 4.95585 12H2.70201C2.43516 12 2.30112 12.3223 2.48926 12.5115L5.73482 15.776C5.85211 15.894 6.04302 15.894 6.16031 15.776L9.40587 12.5115C9.59401 12.3223 9.45997 12 9.19312 12H6.93928C6.93928 8.13 10.0433 5 13.8813 5C17.7192 5 20.8233 8.13 20.8233 12C20.8233 15.87 17.7192 19 13.8813 19C12.3289 19 10.8939 18.4803 9.74039 17.6063C9.29729 17.2706 8.6623 17.2626 8.27084 17.6573V17.6573C7.88504 18.0463 7.88184 18.6787 8.30766 19.0234C9.83436 20.2595 11.7669 21 13.8813 21C18.8101 21 22.8067 16.97 22.8067 12C22.8067 7.03 18.8101 3 13.8813 3ZM13.6333 8C13.2226 8 12.8896 8.333 12.8896 8.74378V12.4328C12.8896 12.7846 13.0744 13.1105 13.3764 13.2911L16.4639 15.1371C16.8175 15.3485 17.2756 15.233 17.4866 14.8792V14.8792C17.6973 14.526 17.5822 14.0689 17.2294 13.8577L14.3771 12.15V8.74378C14.3771 8.333 14.0441 8 13.6333 8V8Z" fill="white"/>
</svg>
