<svg width="25" height="24" viewBox="0 0 25 24" fill="none" xmlns="http://www.w3.org/2000/svg">
<path d="M11.4613 16C11.4613 15.4523 11.9053 15 12.453 15V15C13.0007 15 13.4447 15.4523 13.4447 16V16C13.4447 16.5477 13.0007 17 12.453 17V17C11.9053 17 11.4613 16.5477 11.4613 16V16ZM11.4613 7.99171C11.4613 7.444 11.9053 7 12.453 7V7C13.0007 7 13.4447 7.444 13.4447 7.99171V12.0083C13.4447 12.556 13.0007 13 12.453 13V13C11.9053 13 11.4613 12.556 11.4613 12.0083V7.99171ZM12.4431 2C6.96884 2 2.53589 6.48 2.53589 12C2.53589 17.52 6.96884 22 12.4431 22C17.9273 22 22.3701 17.52 22.3701 12C22.3701 6.48 17.9273 2 12.4431 2ZM12.453 20C8.06965 20 4.51931 16.42 4.51931 12C4.51931 7.58 8.06965 4 12.453 4C16.8364 4 20.3867 7.58 20.3867 12C20.3867 16.42 16.8364 20 12.453 20Z" fill="white"/>
</svg>
