<svg width="25" height="25" viewBox="0 0 25 25" fill="none" xmlns="http://www.w3.org/2000/svg">
<path d="M16.7597 3.69642C17.1096 3.2737 17.737 3.21717 18.1568 3.57052L21.1721 6.10806C21.5865 6.45685 21.6423 7.07452 21.2971 7.49196V7.49196C20.9478 7.91435 20.3213 7.97115 19.9017 7.61847L16.885 5.08267C16.4695 4.73345 16.4136 4.11448 16.7597 3.69642V3.69642ZM6.14718 3.57019C6.56685 3.21703 7.19391 3.27356 7.54364 3.69609V3.69609C7.88942 4.11384 7.8336 4.73227 7.41861 5.08135L4.40341 7.61766C3.98368 7.97072 3.35662 7.91388 3.00722 7.4911V7.4911C2.66215 7.07355 2.71807 6.45592 3.13252 6.10714L6.14718 3.57019ZM12.1518 5.09859C7.26941 5.09859 3.31042 9.09067 3.31042 14.0139C3.31042 18.9371 7.26941 22.9292 12.1518 22.9292C17.0343 22.9292 20.9933 18.9371 20.9933 14.0139C20.9933 9.09067 17.0343 5.09859 12.1518 5.09859ZM12.1518 20.948C8.35985 20.948 5.27518 17.8376 5.27518 14.0139C5.27518 10.1902 8.35985 7.07977 12.1518 7.07977C15.9438 7.07977 19.0285 10.1902 19.0285 14.0139C19.0285 17.8376 15.9438 20.948 12.1518 20.948Z" fill="white"/>
<path d="M11.0926 14.4784V10.7981C11.0926 10.3838 11.4256 10.0481 11.8363 10.0481C12.2471 10.0481 12.5801 10.3838 12.5801 10.7981V14.198L15.4302 15.9044C15.7835 16.1159 15.8986 16.5769 15.6868 16.9319C15.4769 17.2839 15.0245 17.3989 14.6741 17.1894L11.5785 15.3386C11.2773 15.1585 11.0926 14.8315 11.0926 14.4784Z" fill="white"/>
</svg>
