<svg width="25" height="24" viewBox="0 0 25 24" fill="none" xmlns="http://www.w3.org/2000/svg">
<path d="M16.2878 9.20857C16.5103 8.98608 16.5103 8.62535 16.2878 8.40286V8.40286C16.0653 8.18037 15.7046 8.18037 15.4821 8.40286L12.6907 11.1943L9.89925 8.40286C9.67675 8.18037 9.31602 8.18037 9.09353 8.40286V8.40286C8.87104 8.62535 8.87104 8.98608 9.09353 9.20857L11.885 12L9.09353 14.7914C8.87104 15.0139 8.87104 15.3747 9.09353 15.5971V15.5971C9.31602 15.8196 9.67675 15.8196 9.89925 15.5971L12.6907 12.8057L15.4821 15.5971C15.7046 15.8196 16.0653 15.8196 16.2878 15.5971V15.5971C16.5103 15.3747 16.5103 15.0139 16.2878 14.7914L13.4964 12L16.2878 9.20857Z" fill="white"/>
</svg>
