<svg width="25" height="24" viewBox="0 0 25 24" fill="none" xmlns="http://www.w3.org/2000/svg">
<path d="M18.5898 8.26153C18.7668 8.65422 19.3245 8.65422 19.5015 8.26153L20.1726 6.77273L21.6602 6.09089C22.0491 5.91265 22.0491 5.36008 21.6602 5.18183L20.1726 4.5L19.5015 3.0112C19.3245 2.6185 18.7668 2.6185 18.5898 3.0112L17.9187 4.5L16.4311 5.18183C16.0422 5.36008 16.0422 5.91265 16.4311 6.09089L17.9187 6.77273L18.5898 8.26153Z" fill="white"/>
<path d="M19.5015 15.7385C19.3245 15.3458 18.7668 15.3458 18.5898 15.7385L17.9187 17.2273L16.4311 17.9091C16.0422 18.0874 16.0422 18.6399 16.4311 18.8182L17.9187 19.5L18.5898 20.9888C18.7668 21.3815 19.3245 21.3815 19.5015 20.9888L20.1726 19.5L21.6602 18.8182C22.0491 18.6399 22.0491 18.0874 21.6602 17.9091L20.1726 17.2273L19.5015 15.7385Z" fill="white"/>
<path d="M12.6249 9.88352C12.4051 9.78278 12.2292 9.60583 12.1299 9.38541L10.9417 6.74968C10.5877 5.96428 9.47247 5.96428 9.11843 6.74968L7.93029 9.38541C7.83094 9.60583 7.65509 9.78278 7.4353 9.88352L4.80099 11.0909C4.0232 11.4474 4.0232 12.5526 4.80099 12.9091L7.4353 14.1165C7.65509 14.2172 7.83094 14.3942 7.93029 14.6146L9.11843 17.2503C9.47247 18.0357 10.5877 18.0357 10.9417 17.2503L12.1299 14.6146C12.2292 14.3942 12.4051 14.2172 12.6249 14.1165L15.2592 12.9091C16.037 12.5526 16.037 11.4474 15.2592 11.0909L12.6249 9.88352ZM10.9226 12.9L10.0301 14.8818L9.13754 12.9L7.17215 12L9.13754 11.1L10.0301 9.11818L10.9226 11.1L12.888 12L10.9226 12.9Z" fill="white"/>
</svg>
