<svg width="25" height="24" viewBox="0 0 25 24" fill="none" xmlns="http://www.w3.org/2000/svg">
<path d="M15.3519 11.0899C14.9204 10.6547 14.2169 10.6547 13.7853 11.0899L12.2326 12.6556L10.6689 11.0862C10.237 10.6527 9.53492 10.6536 9.10408 11.088V11.088C8.67686 11.5188 8.67767 12.2137 9.10591 12.6435L10.6789 14.2222L9.11327 15.801C8.68677 16.231 8.68677 16.9245 9.11327 17.3546V17.3546C9.54482 17.7897 10.2483 17.7897 10.6799 17.3546L12.2326 15.7889L13.7853 17.3546C14.2169 17.7897 14.9204 17.7897 15.3519 17.3546V17.3546C15.7784 16.9245 15.7784 16.231 15.3519 15.801L13.7863 14.2222L15.3519 12.6435C15.7784 12.2134 15.7784 11.5199 15.3519 11.0899V11.0899ZM16.0893 3.11111L15.2808 2.29584C15.093 2.1065 14.8374 2 14.5707 2H9.8945C9.62784 2 9.37223 2.1065 9.18446 2.29584L8.37595 3.11111H5.6304C5.01675 3.11111 4.51929 3.60857 4.51929 4.22222V4.22222C4.51929 4.83587 5.01675 5.33333 5.6304 5.33333H18.8348C19.4485 5.33333 19.9459 4.83587 19.9459 4.22222V4.22222C19.9459 3.60857 19.4485 3.11111 18.8348 3.11111H16.0893ZM5.62119 19.7778C5.62119 21 6.6129 22 7.825 22H16.6402C17.8523 22 18.844 21 18.844 19.7778V7.44444C18.844 6.89216 18.3963 6.44444 17.844 6.44444H6.62119C6.06891 6.44444 5.62119 6.89216 5.62119 7.44444V19.7778ZM7.825 8.66667H16.6402V19.7778H7.825V8.66667Z" fill="white"/>
</svg>
