<svg width="25" height="24" viewBox="0 0 25 24" fill="none" xmlns="http://www.w3.org/2000/svg">
<path d="M18.6253 5.64375C16.9931 4.0125 14.7529 3 12.2651 3C7.28951 3 3.27075 7.0275 3.27075 12C3.27075 16.9725 7.28951 21 12.2651 21C16.0093 21 19.1986 18.7189 20.5557 15.4728C20.8079 14.8697 20.3296 14.25 19.6759 14.25H19.3334C18.9091 14.25 18.5376 14.5212 18.3552 14.9043C17.2725 17.1783 14.9524 18.75 12.2651 18.75C8.53904 18.75 5.5109 15.7237 5.5109 12C5.5109 8.27625 8.53904 5.25 12.2651 5.25C14.1338 5.25 15.7998 6.02625 17.0156 7.2525L13.9033 10.3628C13.7143 10.5518 13.8481 10.875 14.1154 10.875H21.0708C21.1812 10.875 21.2708 10.7855 21.2708 10.675V3.72394C21.2708 3.45672 20.9477 3.32285 20.7587 3.51175L18.6253 5.64375Z" fill="white"/>
</svg>
