<svg width="25" height="24" viewBox="0 0 25 24" fill="none" xmlns="http://www.w3.org/2000/svg">
<path d="M10.5998 5.96212C10.8713 6.23588 11.2697 6.33254 11.6476 6.25578C12.0697 6.17002 12.5066 6.12118 12.9523 6.12118C16.7174 6.12118 19.7802 9.2096 19.7802 13.0062C19.7802 13.4613 19.7306 13.9073 19.6435 14.338C19.5684 14.7095 19.6627 15.1007 19.9296 15.3698V15.3698C20.451 15.8956 21.3344 15.722 21.5026 15.0009C21.6521 14.3601 21.7311 13.6923 21.7311 13.0062C21.7311 8.11783 17.8001 4.15403 12.9523 4.15403C12.2743 4.15403 11.6145 4.23309 10.9795 4.38106C10.2563 4.54957 10.077 5.43488 10.5998 5.96212V5.96212ZM17.5275 2.76178C17.8749 2.34206 18.4979 2.28593 18.9148 2.63678L21.9086 5.15634C22.3201 5.50267 22.3756 6.11597 22.0328 6.53045V6.53045C21.686 6.94985 21.0638 7.00625 20.6472 6.65607L17.6519 4.13822C17.2394 3.79147 17.1838 3.17689 17.5275 2.76178V2.76178ZM4.88627 2.98471C4.50434 2.59938 3.88152 2.59929 3.49948 2.98452V2.98452C3.12199 3.36517 3.12199 3.97898 3.49948 4.35963L4.15396 5.01957L3.99943 5.14999C3.58777 5.49741 3.53223 6.11135 3.87485 6.52701V6.52701C4.22215 6.94835 4.84623 7.00607 5.26492 6.65557L5.53906 6.42608L6.3194 7.21294C4.98307 8.76699 4.17347 10.7932 4.17347 13.0062C4.17347 17.8946 8.10442 21.8584 12.9523 21.8584C15.147 21.8584 17.1563 21.042 18.6975 19.6945L20.0524 21.0607C20.4345 21.446 21.0573 21.446 21.4394 21.0607V21.0607C21.8169 20.68 21.817 20.0662 21.4396 19.6854L4.88627 2.98471ZM12.9523 19.8912C9.18714 19.8912 6.12431 16.8028 6.12431 13.0062C6.12431 11.3341 6.71932 9.79974 7.7045 8.60962L17.3124 18.2978C16.1322 19.2912 14.6105 19.8912 12.9523 19.8912ZM8.34615 3.6896C8.45772 3.80211 8.63681 3.81062 8.75855 3.70921V3.70921C8.88771 3.60162 8.90568 3.40991 8.79876 3.2802L7.97775 2.28418C7.84875 2.12767 7.61685 2.10644 7.46157 2.23692V2.23692C7.29825 2.37415 7.28702 2.62162 7.43723 2.77309L8.34615 3.6896Z" fill="white"/>
</svg>
