<svg width="25" height="24" viewBox="0 0 25 24" fill="none" xmlns="http://www.w3.org/2000/svg">
<path d="M7.64912 2H3.79245C3.18641 2 2.69055 2.5 2.69055 3.11111C2.69055 13.5444 11.076 22 21.4229 22C22.029 22 22.5248 21.5 22.5248 20.8889V17.0111C22.5248 16.4 22.029 15.9 21.4229 15.9C20.0565 15.9 18.7232 15.6778 17.4891 15.2667C17.3789 15.2222 17.2577 15.2111 17.1475 15.2111C16.861 15.2111 16.5855 15.3222 16.3652 15.5333L13.941 17.9778C10.8226 16.3667 8.26618 13.8 6.67944 10.6556L9.10363 8.21111C9.41216 7.9 9.50031 7.46667 9.3791 7.07778C8.9714 5.83333 8.75102 4.5 8.75102 3.11111C8.75102 2.5 8.25516 2 7.64912 2Z" fill="white"/>
</svg>
