<svg width="25" height="24" viewBox="0 0 25 24" fill="none" xmlns="http://www.w3.org/2000/svg">
<path d="M12.6673 7C14.0309 7 15.1466 5.875 15.1466 4.5C15.1466 3.125 14.0309 2 12.6673 2C11.3037 2 10.188 3.125 10.188 4.5C10.188 5.875 11.3037 7 12.6673 7ZM12.6673 9.5C11.3037 9.5 10.188 10.625 10.188 12C10.188 13.375 11.3037 14.5 12.6673 14.5C14.0309 14.5 15.1466 13.375 15.1466 12C15.1466 10.625 14.0309 9.5 12.6673 9.5ZM12.6673 17C11.3037 17 10.188 18.125 10.188 19.5C10.188 20.875 11.3037 22 12.6673 22C14.0309 22 15.1466 20.875 15.1466 19.5C15.1466 18.125 14.0309 17 12.6673 17Z" fill="white"/>
</svg>
