<svg width="25" height="24" viewBox="0 0 25 24" fill="none" xmlns="http://www.w3.org/2000/svg">
<path d="M5.01517 9C3.65157 9 2.53589 10.125 2.53589 11.5C2.53589 12.875 3.65157 14 5.01517 14C6.37878 14 7.49445 12.875 7.49445 11.5C7.49445 10.125 6.37878 9 5.01517 9ZM19.8909 9C18.5273 9 17.4116 10.125 17.4116 11.5C17.4116 12.875 18.5273 14 19.8909 14C21.2545 14 22.3701 12.875 22.3701 11.5C22.3701 10.125 21.2545 9 19.8909 9ZM12.453 9C11.0894 9 9.97373 10.125 9.97373 11.5C9.97373 12.875 11.0894 14 12.453 14C13.8166 14 14.9323 12.875 14.9323 11.5C14.9323 10.125 13.8166 9 12.453 9Z" fill="white"/>
</svg>
