<svg width="25" height="24" viewBox="0 0 25 24" fill="none" xmlns="http://www.w3.org/2000/svg">
<path d="M12.3259 2C6.85169 2 2.40881 6.48 2.40881 12C2.40881 17.52 6.85169 22 12.3259 22C17.8002 22 22.2431 17.52 22.2431 12C22.2431 6.48 17.8002 2 12.3259 2ZM18.4151 17.12C16.7391 15.8 14.6267 15 12.3259 15C10.0252 15 7.91282 15.8 6.23682 17.12C5.08644 15.73 4.39224 13.95 4.39224 12C4.39224 7.58 7.94257 4 12.3259 4C16.7093 4 20.2596 7.58 20.2596 12C20.2596 13.95 19.5654 15.73 18.4151 17.12Z" fill="white"/>
<path d="M12.3259 6C10.4119 6 8.85495 7.57 8.85495 9.5C8.85495 11.43 10.4119 13 12.3259 13C14.2399 13 15.7969 11.43 15.7969 9.5C15.7969 7.57 14.2399 6 12.3259 6Z" fill="white"/>
</svg>
