<svg width="25" height="24" viewBox="0 0 25 24" fill="none" xmlns="http://www.w3.org/2000/svg">
<path d="M16.922 8.66667V19.7778H8.10673V8.66667H12.5143H16.922ZM15.5625 2.29584C15.3747 2.1065 15.1191 2 14.8525 2H10.1762C9.90958 2 9.65397 2.1065 9.4662 2.29584L8.65769 3.11111H5.91214C5.29849 3.11111 4.80103 3.60857 4.80103 4.22222V4.22222C4.80103 4.83587 5.29849 5.33333 5.91214 5.33333H19.1166C19.7302 5.33333 20.2277 4.83587 20.2277 4.22222V4.22222C20.2277 3.60857 19.7302 3.11111 19.1166 3.11111H16.371L15.5625 2.29584ZM19.1258 7.44444C19.1258 6.89216 18.678 6.44444 18.1258 6.44444H6.90293C6.35064 6.44444 5.90293 6.89216 5.90293 7.44444V19.7778C5.90293 21 6.89464 22 8.10673 22H16.922C18.1341 22 19.1258 21 19.1258 19.7778V7.44444Z" fill="white"/>
</svg>
