<svg width="25" height="24" viewBox="0 0 25 24" fill="none" xmlns="http://www.w3.org/2000/svg">
<path d="M17.3591 12C17.3591 12.3945 17.0393 12.7143 16.6448 12.7143H13.0734V16.2857C13.0734 16.6802 12.7536 17 12.3591 17V17C11.9646 17 11.6448 16.6802 11.6448 16.2857V12.7143H8.07342C7.67893 12.7143 7.35913 12.3945 7.35913 12V12C7.35913 11.6055 7.67893 11.2857 8.07342 11.2857H11.6448V7.71429C11.6448 7.3198 11.9646 7 12.3591 7V7C12.7536 7 13.0734 7.3198 13.0734 7.71429V11.2857H16.6448C17.0393 11.2857 17.3591 11.6055 17.3591 12V12Z" fill="white"/>
</svg>
