<svg width="25" height="24" viewBox="0 0 25 24" fill="none" xmlns="http://www.w3.org/2000/svg">
<path d="M12.1713 2C6.68711 2 2.25415 6.47 2.25415 12C2.25415 17.53 6.68711 22 12.1713 22C17.6554 22 22.0884 17.53 22.0884 12C22.0884 6.47 17.6554 2 12.1713 2ZM12.1713 20C7.79782 20 4.23758 16.41 4.23758 12C4.23758 7.59 7.79782 4 12.1713 4C16.5447 4 20.105 7.59 20.105 12C20.105 16.41 16.5447 20 12.1713 20ZM16.4365 7.71087C16.0481 7.31923 15.4149 7.31923 15.0266 7.71087L12.1713 10.59L9.316 7.71087C8.92761 7.31923 8.29445 7.31923 7.90605 7.71087V7.71087C7.5222 8.09792 7.5222 8.72207 7.90605 9.10913L10.773 12L7.90605 14.8909C7.5222 15.2779 7.5222 15.9021 7.90605 16.2891V16.2891C8.29445 16.6808 8.92761 16.6808 9.316 16.2891L12.1713 13.41L15.0266 16.2891C15.4149 16.6808 16.0481 16.6808 16.4365 16.2891V16.2891C16.8204 15.9021 16.8204 15.2779 16.4365 14.8909L13.5696 12L16.4365 9.10913C16.8204 8.72208 16.8204 8.09792 16.4365 7.71087V7.71087Z" fill="white"/>
</svg>
